<?xml version="1.0"?>
<svg width="195" height="195" xmlns="http://www.w3.org/2000/svg" xmlns:svg="http://www.w3.org/2000/svg">
 <g>
  <title>Layer 1</title>
  <g id="svg_2" opacity="0.9">
   <path id="svg_3" d="m114.329498,61.877998c-3.5,-5.409996 -14.358994,-17.405998 -26,0l-53.5,80.000008c-1.160995,1.813995 -2.185997,3.659988 -3.020996,5.48999c-4.920006,10.779007 -3.286003,21.01001 15.520996,21.01001l53.25,0l53.251007,0c20.404999,0 20.903,-13.075012 16.812988,-19.560013l-56.313995,-86.939995z" fill="#FF6600"/>
  </g>
  <g id="svg_4" opacity="0.9">
   <path id="svg_5" d="m117.531494,7.696999c-4.546997,-4.565998 -17.661011,-14.046 -25.434998,5.397003l-35.729004,89.361992c-0.759003,2.017014 -1.378006,4.034012 -1.815002,5.998001c-2.574997,11.565002 1.147003,21.233002 19.544006,17.331009l52.089005,-11.054001l52.090012,-11.054001c19.961975,-4.234009 17.734985,-17.129005 12.388,-22.623001l-73.132019,-73.357002z" fill="#00CCCC"/>
  </g>
  <g id="svg_6" opacity="0.9">
   <path id="svg_7" d="m91.908493,128.128006c3.5,5.410004 14.360001,17.406006 26,0l53.5,-79.998993c1.160995,-1.814003 2.185989,-3.660004 3.020996,-5.490005c4.918991,-10.778999 3.284988,-21.009998 -15.520996,-21.009998l-53.25,0l-53.25,0c-20.405006,0 -20.903,13.074001 -16.813004,19.559994l56.313004,86.939003z" fill="#999900"/>
  </g>
  <g id="svg_8" opacity="0.9">
   <path id="svg_9" d="m131.611496,83.075996c1.372009,-6.295998 2.230011,-22.454994 -18.321991,-18.446999l-30.818008,6.009003l-63.643997,12.407997c-2.104996,0.454002 -4.137001,1.027 -6.024002,1.725006c-11.113998,4.104996 -17.222,12.474998 -3.968994,25.818001l28.041,28.231995l9.483994,9.548996l37.525009,37.781006c14.37999,14.479004 24.007996,5.617004 25.725998,-1.854004l22.000992,-101.221001z" fill="#990099"/>
  </g>
  <g id="svg_20">
   <path id="svg_21" d="m133.5495,81.291c0,15.504997 -10.869003,26.830002 -28.501007,26.830002c-16.872986,0 -27.132996,-11.325005 -27.132996,-26.07c0,-15.656006 11.249008,-26.980003 28.044998,-26.980003c17.32901,-0.000999 27.589005,11.170998 27.589005,26.220001zm-40.358002,0.379997c0,8.817001 4.863998,15.353004 12.617004,15.353004c7.828003,0 12.464005,-6.535004 12.464005,-15.353004c0,-8.815994 -4.864014,-15.504997 -12.541,-15.504997s-12.540009,6.687996 -12.540009,15.504997z" stroke-miterlimit="10" stroke="#FFFFFF" fill="#FFFFFF"/>
  </g>
 </g>
</svg>